<svg width="32" height="32" viewBox="0 0 32 32" fill="none" xmlns="http://www.w3.org/2000/svg">
<rect x="0.75" y="0.75" width="30.5" height="30.5" rx="7.25" fill="#A2A8B1"/>
<rect x="0.75" y="0.75" width="30.5" height="30.5" rx="7.25" stroke="#A2A8B1" stroke-width="1.5"/>
<path d="M16 17.3333C16.7363 17.3333 17.3333 16.7364 17.3333 16C17.3333 15.2636 16.7363 14.6667 16 14.6667C15.2636 14.6667 14.6666 15.2636 14.6666 16C14.6666 16.7364 15.2636 17.3333 16 17.3333Z" fill="#1D1F23"/>
<path d="M21.3333 17.3333C22.0697 17.3333 22.6667 16.7364 22.6667 16C22.6667 15.2636 22.0697 14.6667 21.3333 14.6667C20.597 14.6667 20 15.2636 20 16C20 16.7364 20.597 17.3333 21.3333 17.3333Z" fill="#1D1F23"/>
<path d="M10.6667 17.3333C11.4031 17.3333 12 16.7364 12 16C12 15.2636 11.4031 14.6667 10.6667 14.6667C9.93033 14.6667 9.33337 15.2636 9.33337 16C9.33337 16.7364 9.93033 17.3333 10.6667 17.3333Z" fill="#1D1F23"/>
</svg>
